<svg width="12" height="16" viewBox="0 0 12 16" fill="none" xmlns="http://www.w3.org/2000/svg">
<path d="M11.5428 4.17143L7.54285 0.171429C7.42856 0.0571428 7.31428 0 7.14285 0H1.42856C0.799991 0 0.285706 0.514286 0.285706 1.14286V14.8571C0.285706 15.4857 0.799991 16 1.42856 16H10.5714C11.2 16 11.7143 15.4857 11.7143 14.8571V4.57143C11.7143 4.4 11.6571 4.28571 11.5428 4.17143ZM7.14285 1.37143L10.3428 4.57143H7.14285V1.37143ZM10.5714 14.8571H1.42856V1.14286H5.99999V4.57143C5.99999 5.2 6.51428 5.71429 7.14285 5.71429H10.5714V14.8571Z" fill="white"/>
<path d="M2.57141 11.4286H9.42855V12.5714H2.57141V11.4286Z" fill="white"/>
<path d="M2.57141 8H9.42855V9.14286H2.57141V8Z" fill="white"/>
</svg>
