<svg width="13" height="13" viewBox="0 0 13 13" fill="none" xmlns="http://www.w3.org/2000/svg">
<path d="M10.9376 1.26384C9.37375 -0.300024 6.82707 -0.300024 5.26486 1.26384L0.931851 5.59353C0.903629 5.62175 0.888687 5.65993 0.888687 5.69978C0.888687 5.73962 0.903629 5.7778 0.931851 5.80603L1.54445 6.41862C1.57245 6.4465 1.61036 6.46215 1.64987 6.46215C1.68938 6.46215 1.72729 6.4465 1.75529 6.41862L6.0883 2.08894C6.62619 1.55105 7.34171 1.25554 8.10207 1.25554C8.86242 1.25554 9.57794 1.55105 10.1142 2.08894C10.6521 2.62683 10.9476 3.34236 10.9476 4.10105C10.9476 4.8614 10.6521 5.57526 10.1142 6.11315L5.69816 10.5275L4.98263 11.243C4.31359 11.9121 3.22619 11.9121 2.55714 11.243C2.23341 10.9193 2.05578 10.4893 2.05578 10.0311C2.05578 9.57292 2.23341 9.14294 2.55714 8.81921L6.9383 4.43972C7.04953 4.33015 7.19562 4.26872 7.35168 4.26872H7.35334C7.50939 4.26872 7.65382 4.33015 7.76339 4.43972C7.87462 4.55095 7.93439 4.69704 7.93439 4.8531C7.93439 5.00749 7.87296 5.15358 7.76339 5.26315L4.18244 8.84079C4.15421 8.86901 4.13927 8.9072 4.13927 8.94704C4.13927 8.98688 4.15421 9.02507 4.18244 9.05329L4.79503 9.66589C4.82304 9.69376 4.86094 9.70942 4.90045 9.70942C4.93997 9.70942 4.97787 9.69376 5.00587 9.66589L8.58517 6.08659C8.91554 5.75622 9.0965 5.31794 9.0965 4.85144C9.0965 4.38493 8.91388 3.94499 8.58517 3.61628C7.90285 2.93396 6.79386 2.93562 6.11154 3.61628L5.68654 4.04294L1.73205 7.99577C1.46365 8.26259 1.2509 8.58004 1.10613 8.92972C0.961356 9.27939 0.887447 9.65432 0.888687 10.0328C0.888687 10.8014 1.18918 11.5236 1.73205 12.0665C2.29484 12.6276 3.03195 12.9082 3.76906 12.9082C4.50617 12.9082 5.24328 12.6276 5.80441 12.0665L10.9376 6.93659C11.693 6.17956 12.1113 5.17185 12.1113 4.10105C12.113 3.02859 11.6946 2.02087 10.9376 1.26384Z" fill="#103e7a"/>
</svg>
