<svg width="11" height="12" viewBox="0 0 11 12" fill="none" xmlns="http://www.w3.org/2000/svg">
<path d="M0.22034 0.968875C0.290009 0.899031 0.372772 0.843616 0.46389 0.805806C0.555007 0.767997 0.652689 0.748535 0.75134 0.748535C0.849991 0.748535 0.947673 0.767997 1.03879 0.805806C1.12991 0.843616 1.21267 0.899031 1.28234 0.968875L5.25134 4.93938L9.22034 0.968875C9.29007 0.899143 9.37285 0.843829 9.46396 0.80609C9.55507 0.768352 9.65272 0.748928 9.75134 0.748928C9.84995 0.748928 9.94761 0.768352 10.0387 0.80609C10.1298 0.843829 10.2126 0.899143 10.2823 0.968875C10.3521 1.03861 10.4074 1.12139 10.4451 1.2125C10.4829 1.30361 10.5023 1.40126 10.5023 1.49988C10.5023 1.59849 10.4829 1.69614 10.4451 1.78725C10.4074 1.87836 10.3521 1.96114 10.2823 2.03088L6.31184 5.99987L10.2823 9.96887C10.3521 10.0386 10.4074 10.1214 10.4451 10.2125C10.4829 10.3036 10.5023 10.4013 10.5023 10.4999C10.5023 10.5985 10.4829 10.6961 10.4451 10.7872C10.4074 10.8784 10.3521 10.9611 10.2823 11.0309C10.2126 11.1006 10.1298 11.1559 10.0387 11.1937C9.94761 11.2314 9.84995 11.2508 9.75134 11.2508C9.65272 11.2508 9.55507 11.2314 9.46396 11.1937C9.37285 11.1559 9.29007 11.1006 9.22034 11.0309L5.25134 7.06037L1.28234 11.0309C1.21261 11.1006 1.12982 11.1559 1.03872 11.1937C0.947607 11.2314 0.849956 11.2508 0.75134 11.2508C0.652724 11.2508 0.555074 11.2314 0.463965 11.1937C0.372856 11.1559 0.290072 11.1006 0.22034 11.0309C0.150608 10.9611 0.0952938 10.8784 0.0575552 10.7872C0.0198166 10.6961 0.000392675 10.5985 0.000392675 10.4999C0.000392675 10.4013 0.0198166 10.3036 0.0575552 10.2125C0.0952938 10.1214 0.150608 10.0386 0.22034 9.96887L4.19084 5.99987L0.22034 2.03088C0.150495 1.96121 0.0950809 1.87844 0.0572712 1.78733C0.0194616 1.69621 0 1.59853 0 1.49988C0 1.40122 0.0194616 1.30354 0.0572712 1.21242C0.0950809 1.12131 0.150495 1.03854 0.22034 0.968875Z" fill="black"/>
</svg>
