<svg width="22" height="28" viewBox="0 0 22 28" fill="none" xmlns="http://www.w3.org/2000/svg">
<path d="M21.8082 13.6134C20.3651 12.1116 18.4409 11.0839 16.4366 10.6887C15.5547 10.4516 14.6728 10.2935 13.7909 10.2144C16.0357 7.60587 15.6349 3.65352 12.9891 1.44021C10.3434 -0.773108 6.33476 -0.377873 4.08991 2.23068C1.84506 4.83923 2.24592 8.79158 4.89164 11.0049C5.37268 11.4001 5.85372 11.7163 6.33476 11.8744V13.6134L5.05199 12.4277C3.92956 11.3211 2.08558 11.3211 0.882979 12.4277C-0.239447 13.5344 -0.31962 15.2734 0.802805 16.3801L4.49078 20.6486C4.65112 21.7553 5.05199 22.7829 5.6132 23.7315C6.01407 24.4429 6.57528 25.1543 7.13649 25.7076V27.2095C7.13649 27.6838 7.45719 28 7.93823 28H18.8418C19.2427 28 19.6435 27.6048 19.6435 27.2095V25.1543C21.1668 23.3362 21.9685 21.0439 21.9685 18.7515V14.1668C22.0487 13.8506 21.9685 13.6925 21.8082 13.6134ZM4.17008 6.18303C4.17008 3.57448 6.33476 1.51926 8.98048 1.5983C11.6262 1.5983 13.7107 3.73257 13.6305 6.34112C13.6305 7.76397 12.9891 9.02872 11.8667 9.89824V5.94589C11.8258 5.26084 11.5206 4.61719 11.0138 4.14687C10.5069 3.67655 9.83683 3.41519 9.14083 3.41638C7.69771 3.33734 6.41493 4.52304 6.41493 5.94589V10.0563C5.05199 9.26586 4.25026 7.76397 4.17008 6.18303ZM20.4453 18.6725C20.5254 20.7277 19.8039 22.7039 18.4409 24.2848C18.2806 24.4429 18.1202 24.601 18.1202 24.8381V26.4981H8.82013V25.3914C8.82013 25.1543 8.65979 24.9172 8.49944 24.7591C7.93823 24.2848 7.45719 23.7315 7.05632 23.02C6.57528 22.2296 6.25459 21.281 6.09424 20.3324C6.09424 20.1743 6.01407 20.0163 5.93389 19.8582L2.08558 15.3525C1.84506 15.1153 1.68471 14.7992 1.68471 14.4039C1.68471 14.0877 1.84506 13.6925 2.08558 13.4554C2.64679 12.9811 3.44852 12.9811 4.00974 13.4554L6.33476 15.7477V18.1191L7.85805 17.3287V5.94589C7.93823 5.39256 8.41927 4.91828 9.06065 4.99732C9.62186 4.99732 10.1831 5.39256 10.1831 5.94589V15.0363L11.7865 15.3525V11.7163C11.8667 11.6373 11.9469 11.6373 12.0271 11.5582C12.5883 11.5582 13.1495 11.6373 13.7107 11.7163V15.7477L14.9935 15.9849V11.8744L15.9556 12.1116C16.3564 12.1906 16.7573 12.3487 17.1582 12.5068V16.4591L18.4409 16.6963V13.0601C19.1625 13.3763 19.8039 13.8506 20.3651 14.4039L20.4453 18.6725Z" fill="#2F54EB"/>
</svg>
